<?xml version="1.0" encoding="UTF-8" standalone="no"?>
<svg
   xmlns="http://www.w3.org/2000/svg"
   height="1000"
   width="714.286"
   viewBox="0 0 1000 714.286"
   version="1.1">
  <path
     style="stroke-width:0.71428603"
     d="M 38.263672 295.96094 C 27.635096 295.96094 18.600159 299.68109 11.160156 307.12109 C 3.7201536 314.5611 1.1842379e-15 323.59408 0 334.22266 L 0 869.9043 C 1.1842379e-15 880.53287 3.7201536 889.56586 11.160156 897.00586 C 18.600159 904.44586 27.635096 908.16602 38.263672 908.16602 L 471.9082 908.16602 C 482.53678 908.16602 491.57172 904.44586 499.01172 897.00586 C 503.89243 892.12514 507.16093 886.5537 508.83984 880.30078 L 557.48438 880.30078 L 557.48438 521.20703 L 510.17188 521.20703 L 510.17188 512.7832 C 510.17187 502.15463 507.51546 490.46328 502.20117 477.70898 C 496.88688 464.95469 490.50836 454.85797 483.06836 447.41797 L 358.71484 323.06445 C 351.27484 315.62445 341.17812 309.24593 328.42383 303.93164 C 315.66954 298.61735 303.97819 295.96094 293.34961 295.96094 L 38.263672 295.96094 z M 51.017578 346.97852 L 255.08594 346.97852 L 255.08594 512.7832 C 255.08594 515.71351 255.37979 518.51909 255.94531 521.20703 L 76.474609 521.20703 L 76.474609 857.15039 L 51.017578 857.15039 L 51.017578 346.97852 z M 306.10352 350.16602 C 313.80923 352.82316 319.25674 355.74697 322.44531 358.93555 L 447.19727 483.6875 C 450.38584 486.87607 453.30965 492.32358 455.9668 500.0293 L 306.10352 500.0293 L 306.10352 350.16602 z M 115.42969 564.28711 L 321.62109 564.28711 L 321.62109 677.22266 L 115.42969 677.22266 L 115.42969 564.28711 z M 363.52344 564.57227 L 513.70508 564.57227 L 513.70508 677.60547 L 363.52344 677.60547 L 363.52344 564.57227 z M 116.95508 714.16211 L 322.30469 714.16211 L 322.30469 827.1582 L 116.95508 827.1582 L 116.95508 714.16211 z M 363.18945 715.29297 L 513.57617 715.29297 L 513.57617 826.69531 L 363.18945 826.69531 L 363.18945 715.29297 z "
     transform="matrix(1.3999994,0,0,1.3999994,0,-342.85671)"/>
</svg>
