<?xml version="1.0" encoding="UTF-8" standalone="no"?>
<svg
   xmlns="http://www.w3.org/2000/svg"
   height="1000"
   width="714.286"
   viewBox="0 0 1000 714.286">
  <path
     d="m 43.275589,233.67438 c -23.61829,0 -42.63162254,19.01333 -42.63162254,42.63162 v 595.90756 c 0,23.61829 19.01333254,42.63162 42.63162254,42.63162 H 825.38033 c 23.61829,0 42.63163,-19.01333 42.63163,-42.63162 V 276.306 c 0,-23.61829 -19.01334,-42.63162 -42.63163,-42.63162 z m 65.931221,68.27184 H 405.62114 V 533.14026 H 75.122841 V 336.03293 c 0,-18.88388 15.200093,-34.08671 34.083969,-34.08671 z m 375.54984,0 h 274.68972 c 18.88388,0 34.08671,15.20283 34.08671,34.08671 v 198.65226 c -3.18012,-1.00113 -6.56786,-1.54493 -10.0871,-1.54493 H 484.75665 Z M 793.53308,598.3168 v 214.16984 c 0,18.88387 -15.20283,34.08669 -34.08671,34.08669 H 484.75665 v -246.7116 h 298.68933 c 3.51924,0 6.90698,-0.54379 10.0871,-1.54493 z M 75.122841,599.86173 H 405.62114 v 246.7116 H 109.20681 c -18.883876,0 -34.083969,-15.20282 -34.083969,-34.08669 z"
  />
</svg>
