<?xml version="1.0" encoding="UTF-8" standalone="no"?>
<svg
   xmlns="http://www.w3.org/2000/svg"
   height="1000"
   width="714.286"
   viewBox="0 0 1000 714.286">
  <path
     style="fill:none;stroke-width:69.99996948;stroke-miterlimit:4;stroke-dasharray:none"
     d="M 58.737488,108.822 H 648.14627 c 13.15058,0 23.7375,10.58692 23.7375,23.7375 v 737.27957 c 0,13.15058 -10.58692,23.73751 -23.7375,23.73751 H 58.737488 c -13.150577,0 -23.737503,-10.58693 -23.737503,-23.73751 V 132.5595 c 0,-13.15058 10.586926,-23.7375 23.737503,-23.7375 z"
     id="rect5097" />
  <path
     d="M 329.77344 325.21094 C 322.19921 325.21094 316.10156 331.30858 316.10156 338.88281 L 316.10156 435 L 196.18555 435 L 196.18555 345.24023 C 196.18555 337.666 190.0879 331.56836 182.51367 331.56836 L 159.85742 331.56836 C 152.28319 331.56836 146.18555 337.666 146.18555 345.24023 L 146.18555 435 L 41.455078 435 C 33.880859 435 27.783203 441.09766 27.783203 448.67188 L 27.783203 471.32812 C 27.783203 478.90234 33.880859 485 41.455078 485 L 146.18555 485 L 146.18555 575 L 37.21875 575 C 29.644531 575 23.546875 581.09766 23.546875 588.67188 L 23.546875 611.32812 C 23.546875 618.90234 29.644531 625 37.21875 625 L 146.18555 625 L 146.18555 715 L 38.277344 715 C 30.703125 715 24.605469 721.09766 24.605469 728.67188 L 24.605469 751.32812 C 24.605469 758.90234 30.703125 765 38.277344 765 L 146.18555 765 L 146.18555 866.625 C 146.18555 874.19923 152.28319 880.29687 159.85742 880.29688 L 182.51367 880.29688 C 190.0879 880.29687 196.18555 874.19923 196.18555 866.625 L 196.18555 765 L 316.10156 765 L 316.10156 860.26953 C 316.10156 867.84376 322.19921 873.94141 329.77344 873.94141 L 352.42969 873.94141 C 360.00392 873.94141 366.10156 867.84376 366.10156 860.26953 L 366.10156 765 L 465.95898 765 C 473.5332 765 479.63086 758.90234 479.63086 751.32812 L 479.63086 728.67188 C 479.63086 721.09766 473.5332 715 465.95898 715 L 366.10156 715 L 366.10156 625 L 464.90039 625 C 472.47462 625 478.57227 618.90234 478.57227 611.32812 L 478.57227 588.67188 C 478.57227 581.09766 472.47462 575 464.90039 575 L 366.10156 575 L 366.10156 485 L 469.13672 485 C 476.71094 485 482.80859 478.90234 482.80859 471.32812 L 482.80859 448.67188 C 482.80859 441.09766 476.71094 435 469.13672 435 L 366.10156 435 L 366.10156 338.88281 C 366.10156 331.30858 360.00392 325.21094 352.42969 325.21094 L 329.77344 325.21094 z M 196.18555 485 L 316.10156 485 L 316.10156 575 L 196.18555 575 L 196.18555 485 z M 196.18555 625 L 316.10156 625 L 316.10156 715 L 196.18555 715 L 196.18555 625 z "
     transform="matrix(1.3999994,0,0,1.3999994,0,-342.85671)"
     id="rect5195" />
</svg>
