<?xml version="1.0" encoding="UTF-8"?>
<svg width="628px" height="77px" viewBox="0 0 628 77" version="1.1" xmlns="http://www.w3.org/2000/svg" xmlns:xlink="http://www.w3.org/1999/xlink">
    <!-- Generator: Sketch 54.1 (76490) - https://sketchapp.com -->
    <title>Pactflow logo - black</title>
    <desc>Created with Sketch.</desc>
    <defs>
        <path d="M5.683,0 C2.959,0 1.4,1.846 0.999,5.533 L0.999,5.533 L0.999,68.909 C1.632,72.3 3.325,74 6.083,74 L6.083,74 L6.434,74 C9.721,73.407 11.366,71.794 11.366,69.158 L11.366,69.158 L11.366,44.212 L44.667,44.212 C48.659,44.212 52.728,42.796 56.881,39.961 L56.881,39.961 C62.96,35.122 66,29.359 66,22.672 L66,22.672 L66,21.34 C66,18.279 65.054,14.853 63.159,11.067 L63.159,11.067 C58.076,3.691 51.911,0 44.667,0 L44.667,0 L5.683,0 Z M11.366,10.277 L43.722,10.277 C45.382,10.277 46.797,10.542 47.961,11.067 L47.961,11.067 C53.075,13.437 55.635,17.059 55.635,21.934 L55.635,21.934 C55.635,23.481 55.417,24.799 54.984,25.885 L54.984,25.885 C52.86,31.253 48.974,33.936 43.325,33.936 L43.325,33.936 L11.366,33.936 L11.366,10.277 Z" id="path-1"></path>
        <path d="M17.626,5.689 C5.873,13.737 0,24.173 0,37.001 L0,37.001 C0,43.826 1.959,50.519 5.873,57.084 L5.873,57.084 C14.138,68.364 24.414,74 36.696,74 L36.696,74 L37.645,74 C40.663,74 43.551,73.603 46.306,72.811 L46.306,72.811 C55.436,70.108 60,67.074 60,63.709 L60,63.709 L60,63.165 C60,60.627 58.424,59.012 55.27,58.32 L55.27,58.32 L53.527,58.32 C47.886,61.815 42.456,63.565 37.245,63.565 L37.245,63.565 L36.696,63.565 C32.615,63.565 28.531,62.508 24.447,60.397 L24.447,60.397 C15.154,54.626 10.505,46.828 10.505,37.001 L10.505,37.001 C10.505,32.118 12.051,27.105 15.138,21.961 L15.138,21.961 C21.277,14.279 28.581,10.439 37.046,10.439 L37.046,10.439 C39.667,10.439 43.071,11.098 47.254,12.415 L47.254,12.415 L54.025,15.878 L54.673,15.878 C58.228,15.517 60,13.836 60,10.833 L60,10.833 L60,10.439 C60,9.677 59.634,8.61 58.906,7.221 L58.906,7.221 C52.065,2.406 44.782,0 37.046,0 L37.046,0 C30.408,0 23.931,1.894 17.626,5.689 L17.626,5.689 Z" id="path-3"></path>
        <path d="M4.715,0 C2.307,0 0.733,1.632 0,4.895 L0,4.895 C0,7.799 1.722,9.579 5.165,10.239 L5.165,10.239 L25.807,10.239 L25.807,68.905 C26.44,72.3 28.148,74 30.925,74 L30.925,74 L31.175,74 C34.518,73.439 36.193,71.821 36.193,69.154 L36.193,69.154 L36.193,10.239 L56.43,10.239 C60.145,9.844 62,8.295 62,5.59 L62,5.59 L62,4.848 C62,2.209 60.414,0.595 57.233,0 L57.233,0 L4.715,0 Z" id="path-5"></path>
        <path d="M3.734,1.467 C1.841,1.467 0.646,3.124 0.147,6.433 L0.147,6.433 L0.147,70.788 C0.147,73.571 1.792,75.259 5.075,75.855 L5.075,75.855 L5.623,75.855 C8.246,75.855 9.953,74.181 10.749,70.837 L10.749,70.837 L10.499,69.499 L10.499,44.372 L36.37,44.372 L40.451,44.57 C43.305,43.377 44.732,41.574 44.732,39.155 L44.732,39.155 C43.966,35.748 42.324,34.044 39.804,34.044 L39.804,34.044 L37.116,34.241 L10.499,34.241 L10.499,11.797 L49.112,11.797 C52.163,11.797 54.039,10.173 54.737,6.93 L54.737,6.93 C54.237,3.153 52.411,1.269 49.26,1.269 L49.26,1.269 L48.514,1.467 L6.317,1.467 L3.734,0.92 L3.734,1.467 Z" id="path-7"></path>
        <path d="M4.663,0 C1.953,0 0.396,1.835 0.001,5.502 L0.001,5.502 L0.001,68.893 C0.626,72.294 2.315,74 5.06,74 L5.06,74 L44.887,74 C47.336,74 49.039,72.412 50,69.241 L50,69.241 C49.47,65.571 47.765,63.738 44.887,63.738 L44.887,63.738 L10.27,63.738 L10.27,4.463 C10.27,2.148 8.698,0.664 5.555,0 L5.555,0 L4.663,0 Z" id="path-9"></path>
        <path d="M15.541,7.031 C5.178,15.08 0,25.012 0,36.828 L0,36.828 C0,43.791 1.831,50.275 5.495,56.279 L5.495,56.279 C13.511,68.094 23.889,74 36.63,74 L36.63,74 L37.37,74 C44.302,74 50.935,71.986 57.27,67.96 L57.27,67.96 C68.422,59.778 74.001,49.516 74.001,37.176 L74.001,37.176 C74.001,30.508 72.102,23.893 68.307,17.329 L68.307,17.329 C59.927,5.778 49.5,0 37.021,0 L37.021,0 C29.469,0 22.305,2.348 15.541,7.031 L15.541,7.031 Z M21.631,59.002 C14.04,53.129 10.245,45.919 10.245,37.373 L10.245,37.373 C10.245,31.565 11.829,26.382 14.997,21.829 L14.997,21.829 C20.839,14.111 28.182,10.251 37.021,10.251 L37.021,10.251 C41.61,10.251 46.084,11.503 50.44,14.012 L50.44,14.012 C59.315,19.652 63.754,27.308 63.754,36.975 L63.754,36.975 C63.754,42.618 62.104,47.818 58.807,52.568 L58.807,52.568 C52.994,60.026 45.917,63.755 37.569,63.755 L37.569,63.755 L36.63,63.755 C31.313,63.755 26.316,62.172 21.631,59.002 L21.631,59.002 Z" id="path-11"></path>
    </defs>
    <g id="Page-1" stroke="none" stroke-width="1" fill="none" fill-rule="evenodd">
        <g id="Pactflow-logo---black" transform="translate(-1.000000, 0.000000)">
            <path d="M11.3656,12.2768 L11.3656,35.9358 L43.3246,35.9358 C48.9736,35.9358 52.8596,33.2538 54.9836,27.8838 C55.4166,26.7988 55.6346,25.4808 55.6346,23.9338 C55.6346,19.0598 53.0746,15.4368 47.9616,13.0668 C46.7976,12.5418 45.3826,12.2768 43.7216,12.2768 L11.3656,12.2768 Z M5.6836,1.9998 L44.6676,1.9998 C51.9106,1.9998 58.0756,5.6908 63.1586,13.0668 C65.0536,16.8528 65.9996,20.2788 65.9996,23.3398 L65.9996,24.6718 C65.9996,31.3588 62.9606,37.1218 56.8816,41.9608 C52.7276,44.7958 48.6586,46.2118 44.6676,46.2118 L11.3656,46.2118 L11.3656,71.1578 C11.3656,73.7938 9.7216,75.4068 6.4336,75.9998 L6.0836,75.9998 C3.3246,75.9998 1.6316,74.2998 0.9996,70.9088 L0.9996,7.5328 C1.3996,3.8448 2.9586,1.9998 5.6836,1.9998 L5.6836,1.9998 Z" id="Fill-1" fill="#231F20"></path>
            <g id="Group-6" transform="translate(0.000000, 2.000000)">
                <mask id="mask-2" fill="white">
                    <use xlink:href="#path-1"></use>
                </mask>
                <g id="Clip-4"></g>
                <polygon id="Fill-3" fill="#231F20" mask="url(#mask-2)" points="-185 338 812 338 812 -266 -185 -266"></polygon>
                <polygon id="Fill-5" fill="#231F20" mask="url(#mask-2)" points="-4 79 71 79 71 -5 -4 -5"></polygon>
            </g>
            <path d="M180.0467,1.9999 C187.7817,1.9999 195.0657,4.4059 201.9057,9.2219 C202.6337,10.6099 202.9997,11.6769 202.9997,12.4379 L202.9997,12.8329 C202.9997,15.8359 201.2277,17.5169 197.6727,17.8779 L197.0257,17.8779 L190.2547,14.4149 C186.0707,13.0979 182.6677,12.4379 180.0467,12.4379 C171.5807,12.4379 164.2777,16.2789 158.1377,23.9609 C155.0507,29.1049 153.5047,34.1179 153.5047,39.0009 C153.5047,48.8269 158.1537,56.6259 167.4467,62.3959 C171.5307,64.5079 175.6147,65.5639 179.6967,65.5639 L180.2447,65.5639 C185.4567,65.5639 190.8857,63.8149 196.5267,60.3189 L198.2707,60.3189 C201.4237,61.0119 202.9997,62.6269 202.9997,65.1649 L202.9997,65.7089 C202.9997,69.0739 198.4367,72.1069 189.3067,74.8119 C186.5507,75.6039 183.6627,75.9999 180.6447,75.9999 L179.6967,75.9999 C167.4137,75.9999 157.1377,70.3629 148.8727,59.0839 C144.9597,52.5199 142.9997,45.8259 142.9997,39.0009 C142.9997,26.1729 148.8727,15.7369 160.6267,7.6889 C166.9317,3.8949 173.4077,1.9999 180.0467,1.9999" id="Fill-7" fill="#231F20"></path>
            <g id="Group-12" transform="translate(143.000000, 2.000000)">
                <mask id="mask-4" fill="white">
                    <use xlink:href="#path-3"></use>
                </mask>
                <g id="Clip-10"></g>
                <polygon id="Fill-9" fill="#231F20" mask="url(#mask-4)" points="-328 338 669 338 669 -266 -328 -266"></polygon>
                <polygon id="Fill-11" fill="#231F20" mask="url(#mask-4)" points="-5 79 65 79 65 -5 -5 -5"></polygon>
            </g>
            <path d="M216.7152,1.9999 L269.2322,1.9999 C272.4142,2.5939 274.0002,4.2089 274.0002,6.8479 L274.0002,7.5899 C274.0002,10.2949 272.1452,11.8439 268.4302,12.2389 L248.1932,12.2389 L248.1932,71.1539 C248.1932,73.8209 246.5182,75.4379 243.1752,75.9999 L242.9252,75.9999 C240.1482,75.9999 238.4402,74.2999 237.8072,70.9049 L237.8072,12.2389 L217.1652,12.2389 C213.7212,11.5789 212.0002,9.7989 212.0002,6.8949 C212.7332,3.6319 214.3072,1.9999 216.7152,1.9999" id="Fill-13" fill="#231F20"></path>
            <g id="Group-18" transform="translate(212.000000, 2.000000)">
                <mask id="mask-6" fill="white">
                    <use xlink:href="#path-5"></use>
                </mask>
                <g id="Clip-16"></g>
                <polygon id="Fill-15" fill="#231F20" mask="url(#mask-6)" points="-397 338 600 338 600 -266 -397 -266"></polygon>
                <polygon id="Fill-17" fill="#231F20" mask="url(#mask-6)" points="-5 79 67 79 67 -5 -5 -5"></polygon>
            </g>
            <path d="M287.7337,0.9199 L290.3167,1.4669 L332.5137,1.4669 L333.2597,1.2689 C336.4117,1.2689 338.2377,3.1539 338.7367,6.9299 C338.0397,10.1729 336.1637,11.7969 333.1117,11.7969 L294.4987,11.7969 L294.4987,34.2419 L321.1157,34.2419 L323.8037,34.0439 C326.3247,34.0439 327.9657,35.7479 328.7317,39.1549 C328.7317,41.5739 327.3047,43.3769 324.4517,44.5689 L320.3697,44.3719 L294.4987,44.3719 L294.4987,69.4989 L294.7497,70.8369 C293.9537,74.1819 292.2457,75.8559 289.6237,75.8559 L289.0747,75.8559 C285.7917,75.2589 284.1477,73.5709 284.1477,70.7869 L284.1477,6.4329 C284.6457,3.1239 285.8407,1.4669 287.7337,1.4669 L287.7337,0.9199 Z" id="Fill-19" fill="#231F20"></path>
            <g id="Group-23" transform="translate(284.000000, 0.000000)">
                <mask id="mask-8" fill="white">
                    <use xlink:href="#path-7"></use>
                </mask>
                <g id="Clip-22"></g>
                <polygon id="Fill-21" fill="#231F20" mask="url(#mask-8)" points="0 76 55 76 55 0 0 0"></polygon>
            </g>
            <path d="M352.6624,1.9999 L353.5554,1.9999 C356.6984,2.6639 358.2694,4.1479 358.2694,6.4629 L358.2694,65.7379 L392.8874,65.7379 C395.7654,65.7379 397.4704,67.5709 398.0004,71.2409 C397.0394,74.4119 395.3364,75.9999 392.8874,75.9999 L353.0604,75.9999 C350.3144,75.9999 348.6264,74.2939 348.0004,70.8929 L348.0004,7.5019 C348.3954,3.8349 349.9524,1.9999 352.6624,1.9999" id="Fill-24" fill="#231F20"></path>
            <g id="Group-29" transform="translate(348.000000, 2.000000)">
                <mask id="mask-10" fill="white">
                    <use xlink:href="#path-9"></use>
                </mask>
                <g id="Clip-27"></g>
                <polygon id="Fill-26" fill="#231F20" mask="url(#mask-10)" points="-533 338 464 338 464 -266 -533 -266"></polygon>
                <polygon id="Fill-28" fill="#231F20" mask="url(#mask-10)" points="-5 79 55 79 55 -5 -5 -5"></polygon>
            </g>
            <path d="M402.2454,39.373 C402.2454,47.919 406.0404,55.129 413.6314,61.002 C418.3154,64.172 423.3124,65.755 428.6304,65.755 L429.5694,65.755 C437.9174,65.755 444.9934,62.026 450.8074,54.567 C454.1044,49.817 455.7544,44.618 455.7544,38.976 C455.7544,29.309 451.3154,21.652 442.4394,16.012 C438.0844,13.502 433.6104,12.25 429.0214,12.25 C420.1824,12.25 412.8394,16.11 406.9964,23.83 C403.8294,28.382 402.2454,33.565 402.2454,39.373 M429.0214,2 C441.5004,2 451.9274,7.777 460.3074,19.329 C464.1014,25.893 466.0004,32.508 466.0004,39.176 C466.0004,51.516 460.4224,61.777 449.2694,69.96 C442.9354,73.986 436.3014,76 429.3694,76 L428.6304,76 C415.8894,76 405.5114,70.094 397.4954,58.279 C393.8304,52.274 392.0004,45.791 392.0004,38.828 C392.0004,27.013 397.1784,17.08 407.5414,9.032 C414.3054,4.348 421.4694,2 429.0214,2" id="Fill-30" fill="#231F20"></path>
            <g id="Group-35" transform="translate(392.000000, 2.000000)">
                <mask id="mask-12" fill="white">
                    <use xlink:href="#path-11"></use>
                </mask>
                <g id="Clip-33"></g>
                <polygon id="Fill-32" fill="#231F20" mask="url(#mask-12)" points="-577 338 420 338 420 -266 -577 -266"></polygon>
                <polygon id="Fill-34" fill="#231F20" mask="url(#mask-12)" points="-5 79 79 79 79 -5 -5 -5"></polygon>
            </g>
            <g id="Group-40" transform="translate(59.000000, 1.000000)" fill="#231F20">
                <path d="M566.3763,1.4907 C563.7563,0.2087 560.5933,1.2917 559.3093,3.9107 L532.1593,58.3397 C531.4273,59.9127 529.8323,61.0027 527.9823,61.0027 C526.3883,61.0027 524.9903,60.1867 524.1633,58.9537 L510.4393,31.3907 C510.4143,31.3387 510.3763,31.2957 510.3493,31.2447 L498.5223,7.4267 L498.4233,7.4747 C496.3893,3.5987 492.3323,0.9517 487.6503,0.9517 C482.5313,0.9517 478.1583,4.1187 476.3633,8.5967 L460.6563,40.1417 C460.6533,40.1477 460.6523,40.1537 460.6493,40.1587 L451.2923,58.9537 C450.4653,60.1867 449.0673,61.0027 447.4733,61.0027 C445.6233,61.0027 444.0283,59.9127 443.2963,58.3397 C443.2833,58.3147 443.2523,58.2937 443.2243,58.2727 L416.1473,3.9107 C414.8623,1.2917 411.6993,0.2087 409.0793,1.4907 C406.4553,2.7737 405.3703,5.9427 406.6563,8.5647 L436.6403,68.7607 L436.7383,68.7117 C438.7723,72.5877 442.8293,75.2357 447.5113,75.2357 C452.6303,75.2357 457.0033,72.0687 458.7983,67.5907 L474.5063,36.0457 C474.5083,36.0397 474.5093,36.0337 474.5123,36.0277 L483.8703,17.2327 C484.6963,16.0007 486.0943,15.1837 487.6883,15.1837 C489.5383,15.1837 491.1333,16.2747 491.8663,17.8467 C491.8783,17.8727 491.9093,17.8937 491.9383,17.9147 L512.1793,58.6977 C512.2503,58.8417 512.3473,58.9637 512.4293,59.0987 L516.6563,67.5907 C518.4523,72.0687 522.8253,75.2357 527.9443,75.2357 C532.6253,75.2357 536.6833,72.5877 538.7173,68.7117 L568.7993,8.5647 C570.0853,5.9427 569.0003,2.7737 566.3763,1.4907" id="Fill-36"></path>
                <path d="M82.4149,67.622 L52.4319,7.427 L52.3329,7.475 C50.2989,3.599 46.2419,0.952 41.5609,0.952 C36.4409,0.952 32.0679,4.118 30.2729,8.596 L0.8729,67.622 C-0.4141,70.244 0.6709,73.413 3.2949,74.696 C5.9149,75.978 9.0789,74.894 10.3629,72.276 L37.7789,17.233 C38.6059,16.001 40.0029,15.184 41.5979,15.184 C43.4479,15.184 45.0429,16.274 45.7749,17.847 C45.7879,17.873 45.8189,17.893 45.8469,17.914 L58.7459,43.81 L46.5809,43.81 C43.7929,43.81 41.5329,46.07 41.5329,48.858 C41.5329,51.645 43.7929,53.906 46.5809,53.906 L63.7739,53.906 L72.9239,72.276 C74.2089,74.894 77.3719,75.978 79.9919,74.696 C82.6159,73.413 83.7009,70.244 82.4149,67.622" id="Fill-38"></path>
            </g>
        </g>
    </g>
</svg>